<svg width="344" height="28" viewBox="0 0 344 28" fill="none" xmlns="http://www.w3.org/2000/svg">
<path d="M0.416 27V0.971998H9.992C11.888 0.971998 13.586 1.302 15.086 1.962C16.586 2.61 17.768 3.57 18.632 4.842C19.508 6.114 19.946 7.668 19.946 9.504C19.946 11.232 19.562 12.708 18.794 13.932C18.026 15.156 16.946 16.092 15.554 16.74C14.174 17.388 12.548 17.712 10.676 17.712H5.708V27H0.416ZM5.654 13.644H10.532C11.852 13.644 12.932 13.224 13.772 12.384C14.612 11.532 15.032 10.482 15.032 9.234C15.032 7.938 14.588 6.912 13.7 6.156C12.812 5.388 11.732 5.004 10.46 5.004H5.654V13.644ZM19.5134 27L28.8374 0.971998H34.3814L43.6874 27H38.4494L36.3254 20.97H26.9654L24.7874 27H19.5134ZM28.1354 16.38H35.0654L31.6274 6.048L28.1354 16.38ZM67.7917 27H62.3377L58.1077 16.974H52.8337V27H47.5957V0.971998H58.5757C60.6517 0.971998 62.3497 1.302 63.6697 1.962C64.9897 2.622 65.9617 3.54 66.5857 4.716C67.2097 5.88 67.5217 7.224 67.5217 8.748C67.5217 10.116 67.3057 11.274 66.8737 12.222C66.4537 13.158 65.8957 13.938 65.1997 14.562C64.5157 15.186 63.7657 15.696 62.9497 16.092L67.7917 27ZM57.6397 12.924C59.0437 12.924 60.1537 12.546 60.9697 11.79C61.7977 11.034 62.2117 10.062 62.2117 8.874C62.2117 7.674 61.8157 6.726 61.0237 6.03C60.2317 5.334 59.2297 4.986 58.0177 4.986H52.8337V12.924H57.6397ZM70.0785 5.652V0.971998H90.9045V5.652H83.2185V27H77.9445V5.652H70.0785ZM94.4941 0.971998H99.7321V27H94.4941V0.971998ZM105.568 0.971998C105.7 0.971998 106.066 0.971998 106.666 0.971998C107.278 0.971998 107.992 0.971998 108.808 0.971998C109.636 0.971998 110.458 0.977998 111.274 0.989999C112.102 0.989999 112.792 0.995999 113.344 1.008C116.5 1.08 119.074 1.644 121.066 2.7C123.058 3.756 124.516 5.232 125.44 7.128C126.376 9.024 126.844 11.268 126.844 13.86C126.844 16.56 126.352 18.894 125.368 20.862C124.384 22.818 122.878 24.33 120.85 25.398C118.834 26.466 116.272 27 113.164 27H105.568V0.971998ZM110.86 5.22V22.752H113.272C114.76 22.752 116.11 22.464 117.322 21.888C118.546 21.312 119.524 20.37 120.256 19.062C120.988 17.754 121.354 16.008 121.354 13.824C121.354 11.796 121.03 10.152 120.382 8.892C119.734 7.62 118.81 6.69 117.61 6.102C116.41 5.514 114.988 5.22 113.344 5.22H110.86ZM128.392 27L137.716 0.971998H143.26L152.566 27H147.328L145.204 20.97H135.844L133.666 27H128.392ZM137.014 16.38H143.944L140.506 6.048L137.014 16.38ZM165.721 27.36C164.437 27.36 163.177 27.198 161.941 26.874C160.705 26.55 159.577 26.064 158.557 25.416C157.537 24.768 156.691 23.958 156.019 22.986C155.359 22.014 154.963 20.874 154.831 19.566H160.213C160.393 20.358 160.735 21.024 161.239 21.564C161.743 22.104 162.379 22.518 163.147 22.806C163.915 23.094 164.767 23.238 165.703 23.238C166.663 23.238 167.539 23.118 168.331 22.878C169.123 22.638 169.759 22.278 170.239 21.798C170.719 21.306 170.959 20.694 170.959 19.962C170.959 19.302 170.761 18.762 170.365 18.342C169.981 17.922 169.459 17.58 168.799 17.316C168.139 17.052 167.389 16.836 166.549 16.668L162.049 15.75C160.081 15.378 158.521 14.598 157.369 13.41C156.217 12.21 155.623 10.614 155.587 8.622C155.575 6.99 156.007 5.58 156.883 4.392C157.771 3.192 158.971 2.268 160.483 1.62C162.007 0.971998 163.711 0.647998 165.595 0.647998C167.839 0.647998 169.723 1.002 171.247 1.71C172.783 2.406 173.947 3.354 174.739 4.554C175.543 5.742 175.957 7.068 175.981 8.532H170.707C170.611 7.62 170.335 6.894 169.879 6.354C169.423 5.814 168.835 5.424 168.115 5.184C167.407 4.944 166.597 4.824 165.685 4.824C164.989 4.824 164.353 4.902 163.777 5.058C163.213 5.214 162.733 5.436 162.337 5.724C161.941 6 161.635 6.33 161.419 6.714C161.203 7.098 161.095 7.53 161.095 8.01C161.095 8.766 161.347 9.378 161.851 9.846C162.355 10.314 163.297 10.698 164.677 10.998L169.141 11.916C170.737 12.228 172.003 12.69 172.939 13.302C173.887 13.914 174.595 14.604 175.063 15.372C175.543 16.14 175.855 16.926 175.999 17.73C176.155 18.522 176.233 19.254 176.233 19.926C176.233 21.33 175.789 22.596 174.901 23.724C174.025 24.84 172.801 25.728 171.229 26.388C169.657 27.036 167.821 27.36 165.721 27.36ZM199.355 27.36C196.895 27.36 194.765 26.826 192.965 25.758C191.177 24.678 189.791 23.148 188.807 21.168C187.835 19.176 187.349 16.8 187.349 14.04C187.349 11.268 187.841 8.88 188.825 6.876C189.821 4.872 191.219 3.33 193.019 2.25C194.819 1.158 196.931 0.611999 199.355 0.611999C201.767 0.611999 203.867 1.152 205.655 2.232C207.443 3.312 208.823 4.854 209.795 6.858C210.779 8.862 211.271 11.256 211.271 14.04C211.271 16.788 210.785 19.158 209.813 21.15C208.853 23.142 207.479 24.678 205.691 25.758C203.903 26.826 201.791 27.36 199.355 27.36ZM199.355 23.04C200.627 23.04 201.725 22.74 202.649 22.14C203.585 21.528 204.305 20.568 204.809 19.26C205.313 17.94 205.565 16.224 205.565 14.112C205.565 11.94 205.307 10.182 204.791 8.838C204.287 7.494 203.567 6.51 202.631 5.886C201.707 5.25 200.615 4.932 199.355 4.932C198.095 4.932 196.997 5.25 196.061 5.886C195.125 6.51 194.399 7.5 193.883 8.856C193.367 10.2 193.109 11.952 193.109 14.112C193.109 16.236 193.367 17.952 193.883 19.26C194.399 20.568 195.125 21.528 196.061 22.14C196.997 22.74 198.095 23.04 199.355 23.04ZM215.924 0.971998H233.636L233.618 5.364H221.216V11.898H231.962V16.2H221.216V27H215.924V0.971998ZM238.002 0.971998H243.24V27H238.002V0.971998ZM259.678 0.611999C261.634 0.611999 263.374 1.008 264.898 1.8C266.434 2.58 267.67 3.648 268.606 5.004C269.554 6.36 270.112 7.89 270.28 9.594H264.772C264.604 8.694 264.298 7.896 263.854 7.2C263.41 6.492 262.828 5.94 262.108 5.544C261.388 5.136 260.524 4.932 259.516 4.932C258.304 4.932 257.26 5.226 256.384 5.814C255.508 6.402 254.836 7.35 254.368 8.658C253.9 9.966 253.666 11.694 253.666 13.842C253.666 17.082 254.182 19.428 255.214 20.88C256.258 22.32 257.692 23.04 259.516 23.04C260.524 23.04 261.388 22.812 262.108 22.356C262.828 21.888 263.41 21.276 263.854 20.52C264.298 19.752 264.604 18.912 264.772 18H270.28C270.124 19.236 269.824 20.418 269.38 21.546C268.936 22.662 268.306 23.658 267.49 24.534C266.674 25.41 265.624 26.1 264.34 26.604C263.056 27.108 261.502 27.36 259.678 27.36C257.254 27.36 255.16 26.796 253.396 25.668C251.632 24.54 250.27 22.956 249.31 20.916C248.362 18.876 247.888 16.494 247.888 13.77C247.888 11.034 248.362 8.688 249.31 6.732C250.258 4.764 251.614 3.252 253.378 2.196C255.142 1.14 257.242 0.611999 259.678 0.611999ZM274.916 0.971998H280.154V27H274.916V0.971998ZM284.064 27L293.388 0.971998H298.932L308.238 27H303L300.876 20.97H291.516L289.338 27H284.064ZM292.686 16.38H299.616L296.178 6.048L292.686 16.38ZM312.146 0.971998H317.384V27H312.146V0.971998ZM332.995 27.36C331.711 27.36 330.451 27.198 329.215 26.874C327.979 26.55 326.851 26.064 325.831 25.416C324.811 24.768 323.965 23.958 323.293 22.986C322.633 22.014 322.237 20.874 322.105 19.566H327.487C327.667 20.358 328.009 21.024 328.513 21.564C329.017 22.104 329.653 22.518 330.421 22.806C331.189 23.094 332.041 23.238 332.977 23.238C333.937 23.238 334.813 23.118 335.605 22.878C336.397 22.638 337.033 22.278 337.513 21.798C337.993 21.306 338.233 20.694 338.233 19.962C338.233 19.302 338.035 18.762 337.639 18.342C337.255 17.922 336.733 17.58 336.073 17.316C335.413 17.052 334.663 16.836 333.823 16.668L329.323 15.75C327.355 15.378 325.795 14.598 324.643 13.41C323.491 12.21 322.897 10.614 322.861 8.622C322.849 6.99 323.281 5.58 324.157 4.392C325.045 3.192 326.245 2.268 327.757 1.62C329.281 0.971998 330.985 0.647998 332.869 0.647998C335.113 0.647998 336.997 1.002 338.521 1.71C340.057 2.406 341.221 3.354 342.013 4.554C342.817 5.742 343.231 7.068 343.255 8.532H337.981C337.885 7.62 337.609 6.894 337.153 6.354C336.697 5.814 336.109 5.424 335.389 5.184C334.681 4.944 333.871 4.824 332.959 4.824C332.263 4.824 331.627 4.902 331.051 5.058C330.487 5.214 330.007 5.436 329.611 5.724C329.215 6 328.909 6.33 328.693 6.714C328.477 7.098 328.369 7.53 328.369 8.01C328.369 8.766 328.621 9.378 329.125 9.846C329.629 10.314 330.571 10.698 331.951 10.998L336.415 11.916C338.011 12.228 339.277 12.69 340.213 13.302C341.161 13.914 341.869 14.604 342.337 15.372C342.817 16.14 343.129 16.926 343.273 17.73C343.429 18.522 343.507 19.254 343.507 19.926C343.507 21.33 343.063 22.596 342.175 23.724C341.299 24.84 340.075 25.728 338.503 26.388C336.931 27.036 335.095 27.36 332.995 27.36Z" fill="white"/>
</svg>
