<svg width="273" height="19" viewBox="0 0 273 19" fill="none" xmlns="http://www.w3.org/2000/svg">
<path d="M6.008 3.272C6.87733 3.272 7.65067 3.448 8.328 3.8C9.01067 4.14667 9.56 4.62133 9.976 5.224C10.3973 5.82667 10.6453 6.50667 10.72 7.264H8.272C8.19733 6.864 8.06133 6.50933 7.864 6.2C7.66667 5.88533 7.408 5.64 7.088 5.464C6.768 5.28267 6.384 5.192 5.936 5.192C5.39733 5.192 4.93333 5.32267 4.544 5.584C4.15467 5.84533 3.856 6.26667 3.648 6.848C3.44 7.42933 3.336 8.19733 3.336 9.152C3.336 10.592 3.56533 11.6347 4.024 12.28C4.488 12.92 5.12533 13.24 5.936 13.24C6.384 13.24 6.768 13.1387 7.088 12.936C7.408 12.728 7.66667 12.456 7.864 12.12C8.06133 11.7787 8.19733 11.4053 8.272 11H10.72C10.6507 11.5493 10.5173 12.0747 10.32 12.576C10.1227 13.072 9.84267 13.5147 9.48 13.904C9.11733 14.2933 8.65067 14.6 8.08 14.824C7.50933 15.048 6.81867 15.16 6.008 15.16C4.93067 15.16 4 14.9093 3.216 14.408C2.432 13.9067 1.82667 13.2027 1.4 12.296C0.978667 11.3893 0.768 10.3307 0.768 9.12C0.768 7.904 0.978667 6.86133 1.4 5.992C1.82133 5.11733 2.424 4.44533 3.208 3.976C3.992 3.50667 4.92533 3.272 6.008 3.272ZM12.7804 15V3.432H16.9724C18.487 3.432 19.6097 3.69333 20.3404 4.216C21.0764 4.73333 21.4444 5.48267 21.4444 6.464C21.4444 7.04 21.2977 7.54133 21.0044 7.968C20.711 8.38933 20.1884 8.75733 19.4364 9.072C19.9217 9.19467 20.3137 9.36 20.6124 9.568C20.911 9.776 21.1404 10.008 21.3004 10.264C21.4604 10.5147 21.5697 10.7787 21.6284 11.056C21.687 11.328 21.7164 11.5973 21.7164 11.864C21.7164 12.9307 21.3537 13.72 20.6284 14.232C19.903 14.744 18.7484 15 17.1644 15H12.7804ZM15.1084 13.192H17.2124C17.9164 13.192 18.447 13.0507 18.8044 12.768C19.167 12.4853 19.3484 12.1067 19.3484 11.632C19.3484 11.2907 19.2604 11.0053 19.0844 10.776C18.9084 10.5413 18.6684 10.3653 18.3644 10.248C18.0657 10.1307 17.7244 10.072 17.3404 10.072H15.1084V13.192ZM15.1084 8.216H17.3404C17.5804 8.216 17.8097 8.18933 18.0284 8.136C18.2524 8.07733 18.4497 7.98933 18.6204 7.872C18.7964 7.75467 18.935 7.60533 19.0364 7.424C19.1377 7.23733 19.1884 7.01867 19.1884 6.768C19.1884 6.26667 18.999 5.888 18.6204 5.632C18.247 5.37067 17.767 5.24 17.1804 5.24H15.1084V8.216ZM23.9523 3.432H26.3043V13.024H31.3283V15H23.9523V3.432ZM37.6821 15.16C36.5888 15.16 35.6421 14.9227 34.8421 14.448C34.0475 13.968 33.4315 13.288 32.9941 12.408C32.5621 11.5227 32.3461 10.4667 32.3461 9.24C32.3461 8.008 32.5648 6.94667 33.0021 6.056C33.4448 5.16533 34.0661 4.48 34.8661 4C35.6661 3.51467 36.6048 3.272 37.6821 3.272C38.7541 3.272 39.6875 3.512 40.4821 3.992C41.2768 4.472 41.8901 5.15733 42.3221 6.048C42.7595 6.93867 42.9781 8.00267 42.9781 9.24C42.9781 10.4613 42.7621 11.5147 42.3301 12.4C41.9035 13.2853 41.2928 13.968 40.4981 14.448C39.7035 14.9227 38.7648 15.16 37.6821 15.16ZM37.6821 13.24C38.2475 13.24 38.7355 13.1067 39.1461 12.84C39.5621 12.568 39.8821 12.1413 40.1061 11.56C40.3301 10.9733 40.4421 10.2107 40.4421 9.272C40.4421 8.30667 40.3275 7.52533 40.0981 6.928C39.8741 6.33067 39.5541 5.89333 39.1381 5.616C38.7275 5.33333 38.2421 5.192 37.6821 5.192C37.1221 5.192 36.6341 5.33333 36.2181 5.616C35.8021 5.89333 35.4795 6.33333 35.2501 6.936C35.0208 7.53333 34.9061 8.312 34.9061 9.272C34.9061 10.216 35.0208 10.9787 35.2501 11.56C35.4795 12.1413 35.8021 12.568 36.2181 12.84C36.6341 13.1067 37.1221 13.24 37.6821 13.24ZM45.046 3.432H47.398V13.024H52.422V15H45.046V3.432Z" fill="white"/>
<path d="M78.296 3.432H80.648V13.024H85.672V15H78.296V3.432ZM91.9299 3.272C92.7992 3.272 93.5725 3.448 94.2499 3.8C94.9325 4.14667 95.4819 4.62133 95.8979 5.224C96.3192 5.82667 96.5672 6.50667 96.6419 7.264H94.1939C94.1192 6.864 93.9832 6.50933 93.7859 6.2C93.5885 5.88533 93.3299 5.64 93.0099 5.464C92.6899 5.28267 92.3059 5.192 91.8579 5.192C91.3192 5.192 90.8552 5.32267 90.4659 5.584C90.0765 5.84533 89.7779 6.26667 89.5699 6.848C89.3619 7.42933 89.2579 8.19733 89.2579 9.152C89.2579 10.592 89.4872 11.6347 89.9459 12.28C90.4099 12.92 91.0472 13.24 91.8579 13.24C92.3059 13.24 92.6899 13.1387 93.0099 12.936C93.3299 12.728 93.5885 12.456 93.7859 12.12C93.9832 11.7787 94.1192 11.4053 94.1939 11H96.6419C96.5725 11.5493 96.4392 12.0747 96.2419 12.576C96.0445 13.072 95.7645 13.5147 95.4019 13.904C95.0392 14.2933 94.5725 14.6 94.0019 14.824C93.4312 15.048 92.7405 15.16 91.9299 15.16C90.8525 15.16 89.9219 14.9093 89.1379 14.408C88.3539 13.9067 87.7485 13.2027 87.3219 12.296C86.9005 11.3893 86.6899 10.3307 86.6899 9.12C86.6899 7.904 86.9005 6.86133 87.3219 5.992C87.7432 5.11733 88.3459 4.44533 89.1299 3.976C89.9139 3.50667 90.8472 3.272 91.9299 3.272ZM108.446 15H105.902L102.838 9.616L101.126 11.68V15H98.7023V3.432H101.126V8.728L105.342 3.432H108.022L104.51 7.912L108.446 15Z" fill="white"/>
<path d="M134.296 3.432H136.648V13.024H141.672V15H134.296V3.432ZM147.93 3.272C148.799 3.272 149.573 3.448 150.25 3.8C150.933 4.14667 151.482 4.62133 151.898 5.224C152.319 5.82667 152.567 6.50667 152.642 7.264H150.194C150.119 6.864 149.983 6.50933 149.786 6.2C149.589 5.88533 149.33 5.64 149.01 5.464C148.69 5.28267 148.306 5.192 147.858 5.192C147.319 5.192 146.855 5.32267 146.466 5.584C146.077 5.84533 145.778 6.26667 145.57 6.848C145.362 7.42933 145.258 8.19733 145.258 9.152C145.258 10.592 145.487 11.6347 145.946 12.28C146.41 12.92 147.047 13.24 147.858 13.24C148.306 13.24 148.69 13.1387 149.01 12.936C149.33 12.728 149.589 12.456 149.786 12.12C149.983 11.7787 150.119 11.4053 150.194 11H152.642C152.573 11.5493 152.439 12.0747 152.242 12.576C152.045 13.072 151.765 13.5147 151.402 13.904C151.039 14.2933 150.573 14.6 150.002 14.824C149.431 15.048 148.741 15.16 147.93 15.16C146.853 15.16 145.922 14.9093 145.138 14.408C144.354 13.9067 143.749 13.2027 143.322 12.296C142.901 11.3893 142.69 10.3307 142.69 9.12C142.69 7.904 142.901 6.86133 143.322 5.992C143.743 5.11733 144.346 4.44533 145.13 3.976C145.914 3.50667 146.847 3.272 147.93 3.272ZM159.046 15.16C158.476 15.16 157.916 15.088 157.366 14.944C156.817 14.8 156.316 14.584 155.862 14.296C155.409 14.008 155.033 13.648 154.734 13.216C154.441 12.784 154.265 12.2773 154.206 11.696H156.598C156.678 12.048 156.83 12.344 157.054 12.584C157.278 12.824 157.561 13.008 157.902 13.136C158.244 13.264 158.622 13.328 159.038 13.328C159.465 13.328 159.854 13.2747 160.206 13.168C160.558 13.0613 160.841 12.9013 161.054 12.688C161.268 12.4693 161.374 12.1973 161.374 11.872C161.374 11.5787 161.286 11.3387 161.11 11.152C160.94 10.9653 160.708 10.8133 160.414 10.696C160.121 10.5787 159.788 10.4827 159.414 10.408L157.414 10C156.54 9.83467 155.846 9.488 155.334 8.96C154.822 8.42667 154.558 7.71733 154.542 6.832C154.537 6.10667 154.729 5.48 155.118 4.952C155.513 4.41867 156.046 4.008 156.718 3.72C157.396 3.432 158.153 3.288 158.99 3.288C159.988 3.288 160.825 3.44533 161.502 3.76C162.185 4.06933 162.702 4.49067 163.054 5.024C163.412 5.552 163.596 6.14133 163.606 6.792H161.262C161.22 6.38667 161.097 6.064 160.894 5.824C160.692 5.584 160.43 5.41067 160.11 5.304C159.796 5.19733 159.436 5.144 159.03 5.144C158.721 5.144 158.438 5.17867 158.182 5.248C157.932 5.31733 157.718 5.416 157.542 5.544C157.366 5.66667 157.23 5.81333 157.134 5.984C157.038 6.15467 156.99 6.34667 156.99 6.56C156.99 6.896 157.102 7.168 157.326 7.376C157.55 7.584 157.969 7.75467 158.582 7.888L160.566 8.296C161.276 8.43467 161.838 8.64 162.254 8.912C162.676 9.184 162.99 9.49067 163.198 9.832C163.412 10.1733 163.55 10.5227 163.614 10.88C163.684 11.232 163.718 11.5573 163.718 11.856C163.718 12.48 163.521 13.0427 163.126 13.544C162.737 14.04 162.193 14.4347 161.494 14.728C160.796 15.016 159.98 15.16 159.046 15.16Z" fill="white"/>
<path d="M190.296 3.432H192.648V13.024H197.672V15H190.296V3.432ZM199.53 15V3.432H203.786C204.629 3.432 205.384 3.57867 206.05 3.872C206.717 4.16 207.242 4.58667 207.626 5.152C208.016 5.71733 208.21 6.408 208.21 7.224C208.21 7.992 208.04 8.648 207.698 9.192C207.357 9.736 206.877 10.152 206.258 10.44C205.645 10.728 204.922 10.872 204.09 10.872H201.882V15H199.53ZM201.858 9.064H204.026C204.613 9.064 205.093 8.87733 205.466 8.504C205.84 8.12533 206.026 7.65867 206.026 7.104C206.026 6.528 205.829 6.072 205.434 5.736C205.04 5.39467 204.56 5.224 203.994 5.224H201.858V9.064ZM209.968 3.432H212.32V13.024H217.344V15H209.968V3.432Z" fill="white"/>
<path d="M243.296 3.432H245.648V13.024H250.672V15H243.296V3.432ZM252.53 15V3.432H260.474L260.466 5.4H254.874V8.208H259.73V10.136H254.858V13.008L260.554 13.016V15H252.53ZM267.336 3.272C268.205 3.272 268.979 3.448 269.656 3.8C270.339 4.14667 270.888 4.62133 271.304 5.224C271.725 5.82667 271.973 6.50667 272.048 7.264H269.6C269.525 6.864 269.389 6.50933 269.192 6.2C268.995 5.88533 268.736 5.64 268.416 5.464C268.096 5.28267 267.712 5.192 267.264 5.192C266.725 5.192 266.261 5.32267 265.872 5.584C265.483 5.84533 265.184 6.26667 264.976 6.848C264.768 7.42933 264.664 8.19733 264.664 9.152C264.664 10.592 264.893 11.6347 265.352 12.28C265.816 12.92 266.453 13.24 267.264 13.24C267.712 13.24 268.096 13.1387 268.416 12.936C268.736 12.728 268.995 12.456 269.192 12.12C269.389 11.7787 269.525 11.4053 269.6 11H272.048C271.979 11.5493 271.845 12.0747 271.648 12.576C271.451 13.072 271.171 13.5147 270.808 13.904C270.445 14.2933 269.979 14.6 269.408 14.824C268.837 15.048 268.147 15.16 267.336 15.16C266.259 15.16 265.328 14.9093 264.544 14.408C263.76 13.9067 263.155 13.2027 262.728 12.296C262.307 11.3893 262.096 10.3307 262.096 9.12C262.096 7.904 262.307 6.86133 262.728 5.992C263.149 5.11733 263.752 4.44533 264.536 3.976C265.32 3.50667 266.253 3.272 267.336 3.272Z" fill="white"/>
</svg>
